<svg width="35" height="35" viewBox="0 0 35 35" fill="none" xmlns="http://www.w3.org/2000/svg">
<path d="M27.4539 27.0106C28.3972 27.0106 29.3018 27.3854 29.9688 28.0524C30.6359 28.7194 31.0106 29.6241 31.0106 30.5674C31.0106 31.5107 30.6359 32.4154 29.9688 33.0824C29.3018 33.7494 28.3972 34.1241 27.4539 34.1241C26.5105 34.1241 25.6059 33.7494 24.9389 33.0824C24.2718 32.4154 23.8971 31.5107 23.8971 30.5674C23.8971 29.6241 24.2718 28.7194 24.9389 28.0524C25.6059 27.3854 26.5105 27.0106 27.4539 27.0106ZM27.4539 28.789C26.9822 28.789 26.5299 28.9764 26.1964 29.3099C25.8628 29.6434 25.6755 30.0957 25.6755 30.5674C25.6755 31.039 25.8628 31.4914 26.1964 31.8249C26.5299 32.1584 26.9822 32.3457 27.4539 32.3457C27.9255 32.3457 28.3778 32.1584 28.7113 31.8249C29.0449 31.4914 29.2322 31.039 29.2322 30.5674C29.2322 30.0957 29.0449 29.6434 28.7113 29.3099C28.3778 28.9764 27.9255 28.789 27.4539 28.789ZM11.4485 27.0106C12.3918 27.0106 13.2965 27.3854 13.9635 28.0524C14.6305 28.7194 15.0053 29.6241 15.0053 30.5674C15.0053 31.5107 14.6305 32.4154 13.9635 33.0824C13.2965 33.7494 12.3918 34.1241 11.4485 34.1241C10.5052 34.1241 9.60056 33.7494 8.93354 33.0824C8.26652 32.4154 7.8918 31.5107 7.8918 30.5674C7.8918 29.6241 8.26652 28.7194 8.93354 28.0524C9.60056 27.3854 10.5052 27.0106 11.4485 27.0106ZM11.4485 28.789C10.9769 28.789 10.5245 28.9764 10.191 29.3099C9.85753 29.6434 9.67016 30.0957 9.67016 30.5674C9.67016 31.039 9.85753 31.4914 10.191 31.8249C10.5245 32.1584 10.9769 32.3457 11.4485 32.3457C11.9202 32.3457 12.3725 32.1584 12.706 31.8249C13.0395 31.4914 13.2269 31.039 13.2269 30.5674C13.2269 30.0957 13.0395 29.6434 12.706 29.3099C12.3725 28.9764 11.9202 28.789 11.4485 28.789ZM31.0106 5.67022H6.59892L11.1284 16.3404H25.6755C25.952 16.3409 26.2248 16.2764 26.4719 16.1522C26.719 16.0281 26.9335 15.8477 27.0982 15.6255L32.4333 8.51205H32.4351C32.6323 8.24771 32.7521 7.93373 32.7812 7.6052C32.8102 7.27667 32.7473 6.94653 32.5995 6.65169C32.4517 6.35684 32.2249 6.1089 31.9443 5.93558C31.6637 5.76226 31.3404 5.67038 31.0106 5.67022ZM25.6755 18.1188H11.2102L9.848 20.8931L9.67016 21.6755C9.67016 22.1472 9.85753 22.5995 10.191 22.933C10.5245 23.2665 10.9769 23.4539 11.4485 23.4539H31.0106V25.2323H11.4485C10.8292 25.2326 10.2206 25.0712 9.68285 24.764C9.14509 24.4569 8.69684 24.0147 8.38246 23.4811C8.06807 22.9476 7.89845 22.3412 7.89037 21.7219C7.88229 21.1027 8.03603 20.4921 8.33639 19.9505L9.61681 17.3292L3.15778 2.11348H0.77832V0.335114H4.33506L5.84489 3.89185H31.0106C31.6826 3.89191 32.3408 4.08235 32.909 4.44111C33.4773 4.79986 33.9322 5.31225 34.2212 5.91893C34.5103 6.52561 34.6215 7.20175 34.542 7.86904C34.4626 8.53633 34.1958 9.16746 33.7724 9.68933L28.5902 16.6001C28.2626 17.0692 27.8265 17.4523 27.319 17.7167C26.8115 17.9811 26.2477 18.1191 25.6755 18.1188Z" fill="black"/>
</svg>
