<svg width="18" height="18" viewBox="0 0 18 18" fill="none" xmlns="http://www.w3.org/2000/svg">
<path d="M11.148 2.02607e-08C9.83715 -2.81794e-05 8.55384 0.375771 7.4503 1.08281C6.34676 1.78985 5.4693 2.79845 4.92202 3.98895C4.37474 5.17945 4.18063 6.50187 4.3627 7.79932C4.54477 9.09677 5.09539 10.3148 5.94923 11.3089L0 17.2551L0.745235 18L6.69552 12.0527C7.5347 12.77 8.53489 13.2739 9.61092 13.5216C10.6869 13.7692 11.8069 13.7533 12.8754 13.4751C13.944 13.1969 14.9294 12.6648 15.7478 11.9239C16.5663 11.183 17.1934 10.2554 17.5759 9.22012C17.9583 8.1848 18.0848 7.07243 17.9444 5.97774C17.8041 4.88306 17.4011 3.83849 16.7699 2.933C16.1386 2.02751 15.2977 1.28793 14.3189 0.77725C13.34 0.266569 12.2521 -8.48661e-05 11.148 2.02607e-08ZM11.148 1.05356C12.6855 1.05356 14.1601 1.66405 15.2474 2.75074C16.3346 3.83743 16.9454 5.3113 16.9454 6.84811C16.9454 8.38492 16.3346 9.85879 15.2474 10.9455C14.1601 12.0322 12.6855 12.6427 11.148 12.6427C9.61037 12.6427 8.13577 12.0322 7.04854 10.9455C5.96131 9.85879 5.35051 8.38492 5.35051 6.84811C5.35051 5.3113 5.96131 3.83743 7.04854 2.75074C8.13577 1.66405 9.61037 1.05356 11.148 1.05356Z" fill="white"/>
</svg>
