<svg width="42" height="42" viewBox="0 0 42 42" fill="none" xmlns="http://www.w3.org/2000/svg">
<path d="M21.0006 0C15.2925 0 14.5811 0.0275625 12.3472 0.122063C10.1042 0.232313 8.58693 0.580125 7.24818 1.09987C5.84703 1.62884 4.57811 2.45702 3.52986 3.52669C2.45721 4.57248 1.62857 5.84211 1.10305 7.245C0.583299 8.58375 0.235486 10.101 0.125236 12.3441C0.0241738 14.5792 0.00317383 15.2893 0.00317383 20.9974C0.00317383 26.7054 0.0307363 27.4168 0.125236 29.6507C0.235486 31.8872 0.583299 33.411 1.10305 34.7497C1.63201 36.1509 2.46019 37.4198 3.52986 38.4681C4.57566 39.5407 5.84529 40.3694 7.24818 40.8949C8.58693 41.4081 10.1107 41.7624 12.3472 41.8727C14.5824 41.9738 15.2925 41.9948 21.0006 41.9948C26.7086 41.9948 27.42 41.9672 29.6539 41.8727C31.8904 41.7624 33.4142 41.4067 34.7529 40.8949C36.1541 40.3659 37.423 39.5377 38.4712 38.4681C39.5453 37.4234 40.3741 36.1534 40.8981 34.7497C41.4112 33.411 41.7656 31.8872 41.8759 29.6507C41.9769 27.4155 41.9979 26.7054 41.9979 20.9974C41.9979 15.2893 41.9704 14.5779 41.8759 12.3441C41.7656 10.1076 41.4099 8.57588 40.8981 7.245C40.3691 5.84386 39.5409 4.57493 38.4712 3.52669C37.4266 2.45266 36.1566 1.6238 34.7529 1.09987C33.4142 0.580125 31.8904 0.232313 29.6539 0.122063C27.4187 0.021 26.7086 0 21.0006 0ZM21.0006 3.78C26.6062 3.78 27.2756 3.80756 29.4911 3.90206C31.5347 3.99787 32.6477 4.33913 33.3866 4.62787C34.3001 4.96509 35.127 5.5018 35.8069 6.19894C36.5028 6.87596 37.0375 7.70089 37.3714 8.61263C37.6601 9.35156 38.0014 10.4646 38.0972 12.5081C38.1917 14.7236 38.2192 15.3943 38.2192 20.9987C38.2192 26.6031 38.1917 27.2738 38.0893 29.4893C37.9791 31.5328 37.6378 32.6458 37.3504 33.3848C36.9527 34.3704 36.5091 35.0595 35.7767 35.805C35.0945 36.4978 34.2682 37.0319 33.3564 37.3695C32.6267 37.6582 31.4979 37.9995 29.4465 38.0953C27.2192 38.1898 26.5629 38.2174 20.9428 38.2174C15.3227 38.2174 14.6677 38.1898 12.4378 38.0874C10.3942 37.9772 9.2668 37.6359 8.52786 37.3485C7.53036 36.9508 6.84655 36.5072 6.11418 35.7748C5.37524 35.0359 4.90536 34.3324 4.54311 33.3546C4.24911 32.6248 3.91311 31.4961 3.80417 29.4446C3.72936 27.2436 3.69392 26.5611 3.69392 20.9672C3.69392 15.3759 3.72936 14.6921 3.80417 12.4635C3.91311 10.4121 4.24911 9.28594 4.54311 8.55356C4.90536 7.55475 5.37655 6.87225 6.11418 6.13331C6.84524 5.40225 7.53036 4.92975 8.52786 4.55963C9.2668 4.27219 10.3667 3.93094 12.4181 3.82856C14.6454 3.7485 15.3017 3.71963 20.9139 3.71963L21.0006 3.78ZM21.0006 10.2204C19.5848 10.2199 18.1829 10.4984 16.8748 11.0399C15.5667 11.5815 14.3782 12.3755 13.3771 13.3765C12.376 14.3776 11.582 15.5662 11.0405 16.8742C10.4989 18.1823 10.2205 19.5843 10.221 21C10.2205 22.4157 10.4989 23.8177 11.0405 25.1258C11.582 26.4338 12.376 27.6224 13.3771 28.6235C14.3782 29.6245 15.5667 30.4185 16.8748 30.9601C18.1829 31.5016 19.5848 31.7801 21.0006 31.7796C22.4163 31.7801 23.8183 31.5016 25.1263 30.9601C26.4344 30.4185 27.6229 29.6245 28.624 28.6235C29.6251 27.6224 30.4191 26.4338 30.9606 25.1258C31.5022 23.8177 31.7806 22.4157 31.7801 21C31.7806 19.5843 31.5022 18.1823 30.9606 16.8742C30.4191 15.5662 29.6251 14.3776 28.624 13.3765C27.6229 12.3755 26.4344 11.5815 25.1263 11.0399C23.8183 10.4984 22.4163 10.2199 21.0006 10.2204ZM21.0006 27.9996C17.1313 27.9996 14.001 24.8692 14.001 21C14.001 17.1308 17.1313 14.0004 21.0006 14.0004C24.8698 14.0004 28.0001 17.1308 28.0001 21C28.0001 24.8692 24.8698 27.9996 21.0006 27.9996ZM34.7346 9.78994C34.7339 10.4589 34.4676 11.1002 33.9944 11.5729C33.5211 12.0457 32.8796 12.3113 32.2106 12.3112C31.8799 12.3112 31.5523 12.2461 31.2468 12.1195C30.9412 11.993 30.6635 11.8074 30.4296 11.5735C30.1958 11.3397 30.0102 11.062 29.8837 10.7564C29.7571 10.4508 29.6919 10.1233 29.6919 9.79256C29.6919 9.4618 29.7571 9.13428 29.8837 8.8287C30.0102 8.52312 30.1958 8.24546 30.4296 8.01158C30.6635 7.7777 30.9412 7.59217 31.2468 7.4656C31.5523 7.33902 31.8799 7.27387 32.2106 7.27387C33.5979 7.27387 34.7346 8.40263 34.7346 9.78994Z" fill="white" fill-opacity="0.5"/>
</svg>
