<?xml version="1.0" encoding="utf-8"?><svg xmlns="http://www.w3.org/2000/svg" xmlns:xlink="http://www.w3.org/1999/xlink"><symbol viewBox="0 0 17 17" id="arrow-left" xmlns="http://www.w3.org/2000/svg"><path d="M4 7.9L11.8.3c.3-.4.9-.4 1.2 0 .4.3.4.8 0 1.2l-7 7 7 7a.9.9 0 11-1.2 1.2L4.1 9.1A.9.9 0 014 8z"/></symbol><symbol viewBox="0 0 6 8" id="arrow-right" xmlns="http://www.w3.org/2000/svg"><path d="M5 3.7L1.6.1a.4.4 0 10-.6.6L4.2 4 1 7.3a.4.4 0 10.6.6L5 4.3v-.6z"/></symbol><symbol viewBox="0 0 19 19" id="search" xmlns="http://www.w3.org/2000/svg"><path d="M18.8 18l-4.6-4.6a8.1 8.1 0 10-.8.8l4.6 4.6.4.2c.2 0 .3 0 .4-.2.3-.2.3-.5 0-.8zM1.1 8.1a7 7 0 1114 0 7 7 0 01-14 0z"/></symbol><symbol viewBox="0 0 23 23" id="settings" xmlns="http://www.w3.org/2000/svg"><g clip-path="url(#dclip0)"><path d="M22.5 4.2h-9.2c-.2-1-1.1-1.8-2.2-1.8-1 0-2 .8-2.2 1.8H.5c-.3 0-.5.3-.5.5 0 .3.2.5.5.5h8.4C9 6.2 10 7 11 7s2-.7 2.2-1.8h9.2c.3 0 .5-.2.5-.5 0-.2-.2-.5-.5-.5zM11 6.1c-.7 0-1.3-.6-1.3-1.3 0-.8.6-1.4 1.3-1.4a1.3 1.3 0 010 2.7zM22.5 11H8.6c-.2-1-1.1-1.8-2.2-1.8-1 0-2 .8-2.2 1.8H.5c-.3 0-.5.2-.5.5s.2.5.5.5h3.7c.2 1 1.2 1.8 2.2 1.8 1.1 0 2-.7 2.2-1.8h14c.2 0 .4-.2.4-.5s-.2-.5-.5-.5zm-16 1.8c-.8 0-1.4-.5-1.4-1.3 0-.7.6-1.3 1.3-1.3a1.3 1.3 0 010 2.6zm16 5h-4.3c-.3-1-1.2-1.8-2.3-1.8-1 0-2 .7-2.2 1.8H.5c-.3 0-.5.2-.5.5 0 .2.2.5.5.5h13.2c.2 1 1.1 1.8 2.2 1.8s2-.8 2.2-1.8h4.4c.3 0 .5-.3.5-.5 0-.3-.2-.5-.5-.5zm-6.6 1.8a1.3 1.3 0 111.3-1.3c0 .7-.5 1.3-1.3 1.3z"/></g><defs><clipPath id="dclip0"><path d="M0 0h23v23H0z"/></clipPath></defs></symbol></svg>