<?xml version="1.0" encoding="UTF-8"?>
<svg xmlns="http://www.w3.org/2000/svg" xmlns:xlink="http://www.w3.org/1999/xlink">
  <symbol xmlns="http://www.w3.org/2000/svg" viewBox="0 0 451.847 451.847" id="arrow-down-sign-to-navigate">
    <path d="M225.923 354.706c-8.098 0-16.195-3.092-22.369-9.263L9.27 151.157c-12.359-12.359-12.359-32.397 0-44.751 12.354-12.354 32.388-12.354 44.748 0l171.905 171.915 171.906-171.909c12.359-12.354 32.391-12.354 44.744 0 12.365 12.354 12.365 32.392 0 44.751L248.292 345.449c-6.177 6.172-14.274 9.257-22.369 9.257z"></path>
  </symbol>
  <symbol xmlns="http://www.w3.org/2000/svg" viewBox="0 0 511 511.9" id="instagram">
    <path d="M510.95 150.5c-1.2-27.2-5.598-45.898-11.9-62.102-6.5-17.199-16.5-32.597-29.6-45.398-12.802-13-28.302-23.102-45.302-29.5-16.296-6.3-34.898-10.7-62.097-11.898C334.648.3 325.949 0 256.449 0s-78.199.3-105.5 1.5c-27.199 1.2-45.898 5.602-62.097 11.898-17.204 6.5-32.602 16.5-45.403 29.602-13 12.8-23.097 28.3-29.5 45.3-6.3 16.302-10.699 34.9-11.898 62.098C.75 177.801.449 186.5.449 256s.301 78.2 1.5 105.5c1.2 27.2 5.602 45.898 11.903 62.102 6.5 17.199 16.597 32.597 29.597 45.398 12.801 13 28.301 23.102 45.301 29.5 16.3 6.3 34.898 10.7 62.102 11.898 27.296 1.204 36 1.5 105.5 1.5s78.199-.296 105.5-1.5c27.199-1.199 45.898-5.597 62.097-11.898a130.934 130.934 0 0074.903-74.898c6.296-16.301 10.699-34.903 11.898-62.102 1.2-27.3 1.5-36 1.5-105.5s-.102-78.2-1.3-105.5zm-46.098 209c-1.102 25-5.301 38.5-8.801 47.5-8.602 22.3-26.301 40-48.602 48.602-9 3.5-22.597 7.699-47.5 8.796-27 1.204-35.097 1.5-103.398 1.5s-76.5-.296-103.403-1.5c-25-1.097-38.5-5.296-47.5-8.796C94.551 451.5 84.45 445 76.25 436.5c-8.5-8.3-15-18.3-19.102-29.398-3.5-9-7.699-22.602-8.796-47.5-1.204-27-1.5-35.102-1.5-103.403s.296-76.5 1.5-103.398c1.097-25 5.296-38.5 8.796-47.5C61.25 94.199 67.75 84.1 76.352 75.898c8.296-8.5 18.296-15 29.398-19.097 9-3.5 22.602-7.7 47.5-8.801 27-1.2 35.102-1.5 103.398-1.5 68.403 0 76.5.3 103.403 1.5 25 1.102 38.5 5.3 47.5 8.8 11.097 4.098 21.199 10.598 29.398 19.098 8.5 8.301 15 18.301 19.102 29.403 3.5 9 7.699 22.597 8.8 47.5 1.2 27 1.5 35.097 1.5 103.398s-.3 76.301-1.5 103.301zm0 0"></path>
    <path d="M256.45 124.5c-72.598 0-131.5 58.898-131.5 131.5s58.902 131.5 131.5 131.5c72.6 0 131.5-58.898 131.5-131.5s-58.9-131.5-131.5-131.5zm0 216.8c-47.098 0-85.302-38.198-85.302-85.3s38.204-85.3 85.301-85.3c47.102 0 85.301 38.198 85.301 85.3s-38.2 85.3-85.3 85.3zm167.402-222c0 16.954-13.747 30.7-30.704 30.7-16.953 0-30.699-13.746-30.699-30.7 0-16.956 13.746-30.698 30.7-30.698 16.956 0 30.703 13.742 30.703 30.699zm0 0"></path>
  </symbol>
  <symbol xmlns="http://www.w3.org/2000/svg" viewBox="0 0 24 24" id="telegram">
    <path d="M9.417 15.181l-.397 5.584c.568 0 .814-.244 1.109-.537l2.663-2.545 5.518 4.041c1.012.564 1.725.267 1.998-.931L23.93 3.821l.001-.001c.321-1.496-.541-2.081-1.527-1.714l-21.29 8.151c-1.453.564-1.431 1.374-.247 1.741l5.443 1.693L18.953 5.78c.595-.394 1.136-.176.691.218z"></path>
  </symbol>
  <symbol xmlns="http://www.w3.org/2000/svg" viewBox="0 0 455 455" id="vk">
    <path d="M0 0v455h455V0H0zm341.098 251.727c10.445 10.19 21.49 19.784 30.865 31.049 4.142 4.978 8.06 10.113 11.046 15.881 4.239 8.264.397 17.318-6.985 17.817l-45.875-.02c-11.841.973-21.277-3.801-29.235-11.902-6.328-6.45-12.243-13.354-18.352-20.023-2.486-2.746-5.115-5.314-8.239-7.362-6.267-4.061-11.703-2.828-15.285 3.699-3.643 6.649-4.499 14.031-4.835 21.435-.499 10.807-3.76 13.634-14.607 14.154-23.208 1.075-45.218-2.451-65.659-14.134-18.052-10.307-32.022-24.879-44.184-41.356-23.702-32.124-41.855-67.391-58.154-103.673-3.684-8.177-.993-12.559 7.999-12.717 14.99-.296 29.974-.26 44.943-.02 6.089.102 10.129 3.582 12.458 9.334 8.101 19.906 18.01 38.85 30.448 56.427 3.327 4.677 6.71 9.334 11.504 12.636 5.314 3.663 9.375 2.466 11.881-3.485 1.595-3.78 2.293-7.8 2.629-11.841 1.192-13.833 1.335-27.681-.718-41.473-1.274-8.621-6.149-14.195-14.745-15.825-4.382-.836-3.725-2.446-1.615-4.958 3.704-4.315 7.189-7.006 14.093-7.006h51.847c8.177 1.595 10.011 5.278 11.122 13.497l.041 57.619c-.097 3.184 1.595 12.615 7.306 14.704 4.575 1.513 7.622-2.171 10.368-5.075 12.417-13.176 21.277-28.756 29.194-44.877 3.505-7.087 6.532-14.449 9.477-21.817 2.17-5.452 5.553-8.137 11.703-8.04l49.916.061c1.472 0 2.986 0 4.438.239 8.396 1.452 10.705 5.075 8.096 13.293-4.076 12.875-12.06 23.625-19.84 34.391-8.341 11.525-17.216 22.647-25.495 34.233-7.562 10.609-6.966 15.943 2.449 25.135z" fill-rule="currentColor" clip-rule="evenodd"></path>
  </symbol>
</svg>
