<svg width="43" height="44" viewBox="0 0 43 44" fill="none" xmlns="http://www.w3.org/2000/svg">
<path d="M27.9864 0.863281H15.0099C3.16805 0.863281 0.36084 3.67049 0.36084 15.5123V28.4889C0.36084 40.3307 3.16805 43.1379 15.0099 43.1379H27.9864C39.8282 43.1379 42.6354 40.3307 42.6354 28.4889V15.5123C42.6354 3.67049 39.8005 0.863281 27.9864 0.863281ZM34.4886 31.02H31.4198C30.2573 31.02 29.8993 30.0979 27.8081 27.9789C25.9917 26.218 25.1871 25.9842 24.7393 25.9842C24.1065 25.9842 23.9269 26.1625 23.9269 27.0304V29.8033C23.9269 30.5471 23.693 30.9936 21.7247 30.9936C18.4697 30.9936 14.8579 29.0252 12.3255 25.358C8.50637 19.984 7.46143 15.9588 7.46143 15.1266C7.46143 14.6787 7.63977 14.2599 8.49977 14.2599H11.5751C12.3532 14.2599 12.6492 14.6179 12.9517 15.4502C14.4722 19.84 17.0046 23.6856 18.0496 23.6856C18.4353 23.6856 18.6137 23.5072 18.6137 22.5231V17.9892C18.4961 15.898 17.3957 15.7184 17.3957 14.976C17.3957 14.6179 17.6916 14.2599 18.1658 14.2599H23.0021C23.6561 14.2599 23.8965 14.6179 23.8965 15.3881V21.5045C23.8965 22.1651 24.1924 22.3989 24.3707 22.3989C24.7565 22.3989 25.0867 22.1651 25.8014 21.449C28.0102 18.9721 29.5928 15.153 29.5928 15.153C29.7989 14.7051 30.1569 14.2864 30.935 14.2864H34.0104C34.9325 14.2864 35.1385 14.7606 34.9325 15.4211C34.5467 17.2098 30.7831 22.5217 30.7831 22.5217C30.4594 23.0581 30.3352 23.2919 30.7831 23.8903C31.1133 24.3382 32.1873 25.2669 32.902 26.0991C34.2165 27.5919 35.2271 28.8442 35.4965 29.7108C35.7991 30.5708 35.3525 31.0187 34.4846 31.0187L34.4886 31.02Z" fill="white" fill-opacity="0.5"/>
</svg>
